<mxfile host="app.diagrams.net" modified="2024-05-06T02:56:37.815Z" agent="Mozilla/5.0 (X11; Linux x86_64) AppleWebKit/537.36 (KHTML, like Gecko) Chrome/124.0.0.0 Safari/537.36" etag="pRYIQLLu9qUTodN4MiIg" version="24.3.1" type="github">
  <diagram name="第 1 页" id="YgofX_YF3xhh3ExV_XS4">
    <mxGraphModel dx="2501" dy="754" grid="1" gridSize="10" guides="1" tooltips="1" connect="1" arrows="1" fold="1" page="1" pageScale="1" pageWidth="827" pageHeight="1169" math="0" shadow="0">
      <root>
        <mxCell id="0" />
        <mxCell id="1" parent="0" />
        <mxCell id="OvkDMop8IfQsk-_mgliN-1" value="" style="rounded=1;whiteSpace=wrap;html=1;fillColor=#fdeff4;strokeColor=none;shadow=1;allowArrows=1;imageAlign=center;rotatable=0;absoluteArcSize=1;arcSize=12;shadowOpacity=30;" vertex="1" parent="1">
          <mxGeometry x="150" y="250" width="370" height="290" as="geometry" />
        </mxCell>
        <mxCell id="OvkDMop8IfQsk-_mgliN-3" value="&lt;pre&gt;&lt;font style=&quot;font-size: 14px;&quot; face=&quot;Garamond&quot;&gt;&lt;span style=&quot;&quot;&gt;负载均衡+VIP&lt;/span&gt;&lt;/font&gt;&lt;/pre&gt;" style="rounded=1;whiteSpace=wrap;html=1;fillColor=#dae8fc;strokeColor=none;glass=0;shadow=1;arcSize=12;shadowOpacity=30;fontStyle=1;textDirection=ltr;labelBackgroundColor=none;fontColor=#413939;absoluteArcSize=1;" vertex="1" parent="1">
          <mxGeometry x="150" y="200" width="370" height="40" as="geometry" />
        </mxCell>
        <mxCell id="OvkDMop8IfQsk-_mgliN-14" value="" style="group;rounded=1;" vertex="1" connectable="0" parent="1">
          <mxGeometry x="160" y="250" width="110" height="110" as="geometry" />
        </mxCell>
        <mxCell id="OvkDMop8IfQsk-_mgliN-2" value="" style="shape=image;verticalLabelPosition=bottom;verticalAlign=top;imageAspect=0;aspect=fixed;image=data:image/svg+xml,PHN2ZyB4bWxuczp4bGluaz0iaHR0cDovL3d3dy53My5vcmcvMTk5OS94bGluayIgeG1sbnM9Imh0dHA6Ly93d3cudzMub3JnLzIwMDAvc3ZnIiBoZWlnaHQ9IjIwMCIgd2lkdGg9IjIwMCIgdmVyc2lvbj0iMS4xIiB2aWV3Qm94PSIwIDAgMTAyNCAxMDI0IiBjbGFzcz0iaWNvbiI+PHBhdGggZmlsbD0iI0FkZDFlZiIgZD0iTTc3OS41MiA3MDRIMjQ0LjQ4YTE0OS4zMzMzMzMgMTQ5LjMzMzMzMyAwIDAgMS0xNDkuMzMzMzMzLTE0OS4zMzMzMzN2LTg1LjMzMzMzNGExNDkuMzMzMzMzIDE0OS4zMzMzMzMgMCAwIDEgMTQ5LjMzMzMzMy0xNDkuMzMzMzMzaDUzNS4wNGExNDkuMzMzMzMzIDE0OS4zMzMzMzMgMCAwIDEgMTQ5LjMzMzMzMyAxNDkuMzMzMzMzdjg1LjMzMzMzNGExNDkuMzMzMzMzIDE0OS4zMzMzMzMgMCAwIDEtMTQ5LjMzMzMzMyAxNDkuMzMzMzMzeiBtLTUzNS4wNC0zNDEuMzMzMzMzYTEwNi42NjY2NjcgMTA2LjY2NjY2NyAwIDAgMC0xMDYuNjY2NjY3IDEwNi42NjY2NjZ2ODUuMzMzMzM0YTEwNi42NjY2NjcgMTA2LjY2NjY2NyAwIDAgMCAxMDYuNjY2NjY3IDEwNi42NjY2NjZoNTM1LjA0YTEwNi42NjY2NjcgMTA2LjY2NjY2NyAwIDAgMCAxMDYuNjY2NjY3LTEwNi42NjY2NjZ2LTg1LjMzMzMzNGExMDYuNjY2NjY3IDEwNi42NjY2NjcgMCAwIDAtMTA2LjY2NjY2Ny0xMDYuNjY2NjY2eiIvPjxwYXRoIGZpbGw9IiNBZGQxZWYiIGQ9Ik0yNjIuNCA1MzUuNDY2NjY3YTIxLjc2IDIxLjc2IDAgMSAxIDIxLjMzMzMzMy0yMS43NiAyMS43NiAyMS43NiAwIDAgMS0yMS4zMzMzMzMgMjEuNzZ6TTQwMS4wNjY2NjcgNTM1LjQ2NjY2N2EyMS43NiAyMS43NiAwIDEgMSAyMS4zMzMzMzMtMjEuMzMzMzM0IDIxLjc2IDIxLjc2IDAgMCAxLTIxLjMzMzMzMyAyMS4zMzMzMzR6TTc3Ny44MTMzMzMgNTM1LjQ2NjY2N2gtMTcwLjY2NjY2NmEyMS4zMzMzMzMgMjEuMzMzMzMzIDAgMCAxLTIxLjMzMzMzNC0yMS4zMzMzMzQgMjEuMzMzMzMzIDIxLjMzMzMzMyAwIDAgMSAyMS4zMzMzMzQtMjEuMzMzMzMzaDE3MC42NjY2NjZhMjEuMzMzMzMzIDIxLjMzMzMzMyAwIDAgMSAyMS4zMzMzMzQgMjEuMzMzMzMzIDIxLjMzMzMzMyAyMS4zMzMzMzMgMCAwIDEtMjEuMzMzMzM0IDIxLjMzMzMzNHoiLz48L3N2Zz4=;shadow=1;fontStyle=1;rounded=1;" vertex="1" parent="OvkDMop8IfQsk-_mgliN-14">
          <mxGeometry width="110" height="110" as="geometry" />
        </mxCell>
        <mxCell id="OvkDMop8IfQsk-_mgliN-7" value="master-1" style="text;strokeColor=none;align=center;fillColor=none;html=1;verticalAlign=middle;whiteSpace=wrap;rounded=1;fontStyle=1" vertex="1" parent="OvkDMop8IfQsk-_mgliN-14">
          <mxGeometry x="25" y="70" width="60" height="30" as="geometry" />
        </mxCell>
        <mxCell id="OvkDMop8IfQsk-_mgliN-6" value="portal cluster" style="text;strokeColor=none;align=left;fillColor=none;html=1;verticalAlign=middle;whiteSpace=wrap;rounded=1;glass=0;shadow=0;fontStyle=0;fontSize=14;fontFamily=Tahoma;horizontal=1;" vertex="1" parent="1">
          <mxGeometry x="160" y="250" width="100" height="30" as="geometry" />
        </mxCell>
        <mxCell id="OvkDMop8IfQsk-_mgliN-15" value="" style="group;rounded=1;" vertex="1" connectable="0" parent="1">
          <mxGeometry x="280" y="250" width="110" height="110" as="geometry" />
        </mxCell>
        <mxCell id="OvkDMop8IfQsk-_mgliN-4" value="" style="shape=image;verticalLabelPosition=bottom;verticalAlign=top;imageAspect=0;aspect=fixed;image=data:image/svg+xml,PHN2ZyB4bWxuczp4bGluaz0iaHR0cDovL3d3dy53My5vcmcvMTk5OS94bGluayIgeG1sbnM9Imh0dHA6Ly93d3cudzMub3JnLzIwMDAvc3ZnIiBoZWlnaHQ9IjIwMCIgd2lkdGg9IjIwMCIgdmVyc2lvbj0iMS4xIiB2aWV3Qm94PSIwIDAgMTAyNCAxMDI0IiBjbGFzcz0iaWNvbiI+PHBhdGggZmlsbD0iI0FkZDFlZiIgZD0iTTc3OS41MiA3MDRIMjQ0LjQ4YTE0OS4zMzMzMzMgMTQ5LjMzMzMzMyAwIDAgMS0xNDkuMzMzMzMzLTE0OS4zMzMzMzN2LTg1LjMzMzMzNGExNDkuMzMzMzMzIDE0OS4zMzMzMzMgMCAwIDEgMTQ5LjMzMzMzMy0xNDkuMzMzMzMzaDUzNS4wNGExNDkuMzMzMzMzIDE0OS4zMzMzMzMgMCAwIDEgMTQ5LjMzMzMzMyAxNDkuMzMzMzMzdjg1LjMzMzMzNGExNDkuMzMzMzMzIDE0OS4zMzMzMzMgMCAwIDEtMTQ5LjMzMzMzMyAxNDkuMzMzMzMzeiBtLTUzNS4wNC0zNDEuMzMzMzMzYTEwNi42NjY2NjcgMTA2LjY2NjY2NyAwIDAgMC0xMDYuNjY2NjY3IDEwNi42NjY2NjZ2ODUuMzMzMzM0YTEwNi42NjY2NjcgMTA2LjY2NjY2NyAwIDAgMCAxMDYuNjY2NjY3IDEwNi42NjY2NjZoNTM1LjA0YTEwNi42NjY2NjcgMTA2LjY2NjY2NyAwIDAgMCAxMDYuNjY2NjY3LTEwNi42NjY2NjZ2LTg1LjMzMzMzNGExMDYuNjY2NjY3IDEwNi42NjY2NjcgMCAwIDAtMTA2LjY2NjY2Ny0xMDYuNjY2NjY2eiIvPjxwYXRoIGZpbGw9IiNBZGQxZWYiIGQ9Ik0yNjIuNCA1MzUuNDY2NjY3YTIxLjc2IDIxLjc2IDAgMSAxIDIxLjMzMzMzMy0yMS43NiAyMS43NiAyMS43NiAwIDAgMS0yMS4zMzMzMzMgMjEuNzZ6TTQwMS4wNjY2NjcgNTM1LjQ2NjY2N2EyMS43NiAyMS43NiAwIDEgMSAyMS4zMzMzMzMtMjEuMzMzMzM0IDIxLjc2IDIxLjc2IDAgMCAxLTIxLjMzMzMzMyAyMS4zMzMzMzR6TTc3Ny44MTMzMzMgNTM1LjQ2NjY2N2gtMTcwLjY2NjY2NmEyMS4zMzMzMzMgMjEuMzMzMzMzIDAgMCAxLTIxLjMzMzMzNC0yMS4zMzMzMzQgMjEuMzMzMzMzIDIxLjMzMzMzMyAwIDAgMSAyMS4zMzMzMzQtMjEuMzMzMzMzaDE3MC42NjY2NjZhMjEuMzMzMzMzIDIxLjMzMzMzMyAwIDAgMSAyMS4zMzMzMzQgMjEuMzMzMzMzIDIxLjMzMzMzMyAyMS4zMzMzMzMgMCAwIDEtMjEuMzMzMzM0IDIxLjMzMzMzNHoiLz48L3N2Zz4=;shadow=1;rounded=1;" vertex="1" parent="OvkDMop8IfQsk-_mgliN-15">
          <mxGeometry width="110" height="110" as="geometry" />
        </mxCell>
        <mxCell id="OvkDMop8IfQsk-_mgliN-8" value="master-2" style="text;strokeColor=none;align=center;fillColor=none;html=1;verticalAlign=middle;whiteSpace=wrap;rounded=1;fontStyle=1" vertex="1" parent="OvkDMop8IfQsk-_mgliN-15">
          <mxGeometry x="25" y="70" width="60" height="30" as="geometry" />
        </mxCell>
        <mxCell id="OvkDMop8IfQsk-_mgliN-17" value="" style="group;rounded=1;" vertex="1" connectable="0" parent="1">
          <mxGeometry x="400" y="250" width="110" height="110" as="geometry" />
        </mxCell>
        <mxCell id="OvkDMop8IfQsk-_mgliN-5" value="" style="shape=image;verticalLabelPosition=bottom;verticalAlign=top;imageAspect=0;aspect=fixed;image=data:image/svg+xml,PHN2ZyB4bWxuczp4bGluaz0iaHR0cDovL3d3dy53My5vcmcvMTk5OS94bGluayIgeG1sbnM9Imh0dHA6Ly93d3cudzMub3JnLzIwMDAvc3ZnIiBoZWlnaHQ9IjIwMCIgd2lkdGg9IjIwMCIgdmVyc2lvbj0iMS4xIiB2aWV3Qm94PSIwIDAgMTAyNCAxMDI0IiBjbGFzcz0iaWNvbiI+PHBhdGggZmlsbD0iI0FkZDFlZiIgZD0iTTc3OS41MiA3MDRIMjQ0LjQ4YTE0OS4zMzMzMzMgMTQ5LjMzMzMzMyAwIDAgMS0xNDkuMzMzMzMzLTE0OS4zMzMzMzN2LTg1LjMzMzMzNGExNDkuMzMzMzMzIDE0OS4zMzMzMzMgMCAwIDEgMTQ5LjMzMzMzMy0xNDkuMzMzMzMzaDUzNS4wNGExNDkuMzMzMzMzIDE0OS4zMzMzMzMgMCAwIDEgMTQ5LjMzMzMzMyAxNDkuMzMzMzMzdjg1LjMzMzMzNGExNDkuMzMzMzMzIDE0OS4zMzMzMzMgMCAwIDEtMTQ5LjMzMzMzMyAxNDkuMzMzMzMzeiBtLTUzNS4wNC0zNDEuMzMzMzMzYTEwNi42NjY2NjcgMTA2LjY2NjY2NyAwIDAgMC0xMDYuNjY2NjY3IDEwNi42NjY2NjZ2ODUuMzMzMzM0YTEwNi42NjY2NjcgMTA2LjY2NjY2NyAwIDAgMCAxMDYuNjY2NjY3IDEwNi42NjY2NjZoNTM1LjA0YTEwNi42NjY2NjcgMTA2LjY2NjY2NyAwIDAgMCAxMDYuNjY2NjY3LTEwNi42NjY2NjZ2LTg1LjMzMzMzNGExMDYuNjY2NjY3IDEwNi42NjY2NjcgMCAwIDAtMTA2LjY2NjY2Ny0xMDYuNjY2NjY2eiIvPjxwYXRoIGZpbGw9IiNBZGQxZWYiIGQ9Ik0yNjIuNCA1MzUuNDY2NjY3YTIxLjc2IDIxLjc2IDAgMSAxIDIxLjMzMzMzMy0yMS43NiAyMS43NiAyMS43NiAwIDAgMS0yMS4zMzMzMzMgMjEuNzZ6TTQwMS4wNjY2NjcgNTM1LjQ2NjY2N2EyMS43NiAyMS43NiAwIDEgMSAyMS4zMzMzMzMtMjEuMzMzMzM0IDIxLjc2IDIxLjc2IDAgMCAxLTIxLjMzMzMzMyAyMS4zMzMzMzR6TTc3Ny44MTMzMzMgNTM1LjQ2NjY2N2gtMTcwLjY2NjY2NmEyMS4zMzMzMzMgMjEuMzMzMzMzIDAgMCAxLTIxLjMzMzMzNC0yMS4zMzMzMzQgMjEuMzMzMzMzIDIxLjMzMzMzMyAwIDAgMSAyMS4zMzMzMzQtMjEuMzMzMzMzaDE3MC42NjY2NjZhMjEuMzMzMzMzIDIxLjMzMzMzMyAwIDAgMSAyMS4zMzMzMzQgMjEuMzMzMzMzIDIxLjMzMzMzMyAyMS4zMzMzMzMgMCAwIDEtMjEuMzMzMzM0IDIxLjMzMzMzNHoiLz48L3N2Zz4=;shadow=1;rounded=1;" vertex="1" parent="OvkDMop8IfQsk-_mgliN-17">
          <mxGeometry width="110" height="110" as="geometry" />
        </mxCell>
        <mxCell id="OvkDMop8IfQsk-_mgliN-9" value="master-3" style="text;strokeColor=none;align=center;fillColor=none;html=1;verticalAlign=middle;whiteSpace=wrap;rounded=1;fontStyle=1" vertex="1" parent="OvkDMop8IfQsk-_mgliN-17">
          <mxGeometry x="25" y="70" width="60" height="30" as="geometry" />
        </mxCell>
        <mxCell id="OvkDMop8IfQsk-_mgliN-18" value="" style="rounded=1;whiteSpace=wrap;html=1;fillColor=#f5f5f5;strokeColor=none;fontColor=#333333;arcSize=12;absoluteArcSize=1;shadow=1;" vertex="1" parent="1">
          <mxGeometry x="-50" y="250" width="110" height="290" as="geometry" />
        </mxCell>
        <mxCell id="OvkDMop8IfQsk-_mgliN-20" value="" style="shape=image;verticalLabelPosition=bottom;verticalAlign=top;imageAspect=0;aspect=fixed;image=data:image/svg+xml,PHN2ZyB4bWxuczp4bGluaz0iaHR0cDovL3d3dy53My5vcmcvMTk5OS94bGluayIgeG1sbnM9Imh0dHA6Ly93d3cudzMub3JnLzIwMDAvc3ZnIiBoZWlnaHQ9IjIwMCIgd2lkdGg9IjIwMCIgdmVyc2lvbj0iMS4xIiB2aWV3Qm94PSIwIDAgMTAyNCAxMDI0IiBjbGFzcz0iaWNvbiI+PHBhdGggZmlsbD0iI0FkZDFlZiIgZD0iTTc3OS41MiA3MDRIMjQ0LjQ4YTE0OS4zMzMzMzMgMTQ5LjMzMzMzMyAwIDAgMS0xNDkuMzMzMzMzLTE0OS4zMzMzMzN2LTg1LjMzMzMzNGExNDkuMzMzMzMzIDE0OS4zMzMzMzMgMCAwIDEgMTQ5LjMzMzMzMy0xNDkuMzMzMzMzaDUzNS4wNGExNDkuMzMzMzMzIDE0OS4zMzMzMzMgMCAwIDEgMTQ5LjMzMzMzMyAxNDkuMzMzMzMzdjg1LjMzMzMzNGExNDkuMzMzMzMzIDE0OS4zMzMzMzMgMCAwIDEtMTQ5LjMzMzMzMyAxNDkuMzMzMzMzeiBtLTUzNS4wNC0zNDEuMzMzMzMzYTEwNi42NjY2NjcgMTA2LjY2NjY2NyAwIDAgMC0xMDYuNjY2NjY3IDEwNi42NjY2NjZ2ODUuMzMzMzM0YTEwNi42NjY2NjcgMTA2LjY2NjY2NyAwIDAgMCAxMDYuNjY2NjY3IDEwNi42NjY2NjZoNTM1LjA0YTEwNi42NjY2NjcgMTA2LjY2NjY2NyAwIDAgMCAxMDYuNjY2NjY3LTEwNi42NjY2NjZ2LTg1LjMzMzMzNGExMDYuNjY2NjY3IDEwNi42NjY2NjcgMCAwIDAtMTA2LjY2NjY2Ny0xMDYuNjY2NjY2eiIvPjxwYXRoIGZpbGw9IiNBZGQxZWYiIGQ9Ik0yNjIuNCA1MzUuNDY2NjY3YTIxLjc2IDIxLjc2IDAgMSAxIDIxLjMzMzMzMy0yMS43NiAyMS43NiAyMS43NiAwIDAgMS0yMS4zMzMzMzMgMjEuNzZ6TTQwMS4wNjY2NjcgNTM1LjQ2NjY2N2EyMS43NiAyMS43NiAwIDEgMSAyMS4zMzMzMzMtMjEuMzMzMzM0IDIxLjc2IDIxLjc2IDAgMCAxLTIxLjMzMzMzMyAyMS4zMzMzMzR6TTc3Ny44MTMzMzMgNTM1LjQ2NjY2N2gtMTcwLjY2NjY2NmEyMS4zMzMzMzMgMjEuMzMzMzMzIDAgMCAxLTIxLjMzMzMzNC0yMS4zMzMzMzQgMjEuMzMzMzMzIDIxLjMzMzMzMyAwIDAgMSAyMS4zMzMzMzQtMjEuMzMzMzMzaDE3MC42NjY2NjZhMjEuMzMzMzMzIDIxLjMzMzMzMyAwIDAgMSAyMS4zMzMzMzQgMjEuMzMzMzMzIDIxLjMzMzMzMyAyMS4zMzMzMzMgMCAwIDEtMjEuMzMzMzM0IDIxLjMzMzMzNHoiLz48L3N2Zz4=;shadow=1;fontStyle=1;rounded=1;" vertex="1" parent="1">
          <mxGeometry x="-50" y="260" width="110" height="110" as="geometry" />
        </mxCell>
        <mxCell id="OvkDMop8IfQsk-_mgliN-21" value="部署机" style="text;strokeColor=none;align=center;fillColor=none;html=1;verticalAlign=middle;whiteSpace=wrap;rounded=1;fontFamily=Tahoma;fontStyle=0;fontSize=14;" vertex="1" parent="1">
          <mxGeometry x="-50" y="250" width="60" height="30" as="geometry" />
        </mxCell>
        <mxCell id="OvkDMop8IfQsk-_mgliN-24" value="" style="shape=image;verticalLabelPosition=bottom;verticalAlign=top;imageAspect=0;aspect=fixed;image=data:image/svg+xml,PHN2ZyB4bWxucz0iaHR0cDovL3d3dy53My5vcmcvMjAwMC9zdmciIHZpZXdCb3g9IjAgMCA1NjQuMjc3OTMgNjU0LjgyMDAyIiBkYXRhLW5hbWU9IkxheWVyIDEiIGlkPSJMYXllcl8xIj48ZGVmcz48c3R5bGU+LmNscy0xe2ZpbGw6IzQxNmJhOTt9LmNscy0ye2ZpbGw6Izc0YzNkNTt9PC9zdHlsZT48L2RlZnM+PHBhdGggZD0iTTE3LjQ4NTgyLDU2Ny41NTk0MWMwLTMuNjYzNzUsMi4yMTY4LTQuOTE3MTYsNC45MTYwOS00LjkxNzE2SDM2LjY2ODc3YzE4LjcwMTUzLDAsMjguMjQ0NzYsOS4wNjEyNywyOC4yNDQ3NiwzMy42NDM4NywwLDIyLjI2NzcxLTcuNTE4ODksMzUuNTcwNjUtMjcuOTU1MjYsMzUuNTcwNjVIMjIuNDAxOTFjLTIuNjk5MjksMC00LjkxNjA5LTEuMjUzNDEtNC45MTYwOS00LjkxNjA5Wm0yMC4zMzk4Nyw0OS43NDFjNy42MTUzOSwwLDEwLjYwMzY1LTYuOTQwNDMsMTAuNjAzNjUtMjAuNzI1ODYsMC0xNS4xMzQyOS0zLjg1NTY4LTE5LjM3Ni0xMC43MDAxNS0xOS4zNzZIMzMuOTd2NDAuMTAxODJaIiBjbGFzcz0iY2xzLTEiLz48cGF0aCBkPSJNNzIuNDM2MTMsNTY3LjU1OTQxYzAtMy42NjM3NSwyLjIxNjgxLTQuOTE3MTYsNC45MTYxLTQuOTE3MTZoNi4zNjI1MWMyLjY5ODc2LDAsNC45MTYwOSwxLjI1MzQxLDQuOTE2MDksNC45MTcxNnY1OS4zODEyN2MwLDMuNjYyNjgtMi4yMTczMyw0LjkxNjA5LTQuOTE2MDksNC45MTYwOUg3Ny4zNTIyM2MtMi42OTkyOSwwLTQuOTE2MS0xLjI1MzQxLTQuOTE2MS00LjkxNjA5WiIgY2xhc3M9ImNscy0xIi8+PHBhdGggZD0iTTk5LjcxOCw2MTMuMDU4NzVsNS43ODQwNS0xLjA2MDQyYzQuMzM3NjQtLjc3MDkyLDQuNTMwNjMsMS4xNTY5Miw1Ljc4MzUyLDMuODU2NzRhNi43MDk1Myw2LjcwOTUzLDAsMCwwLDYuNTU1NSwzLjk1MjE4YzMuNTY2NzIsMCw2LjI2NTQ4LTEuODMxMzQsNi4yNjU0OC01LjU5MTU4LDAtMTIuODIwNDYtMjcuNjY2My0xMS4wODU2MS0yNy42NjYzLTM0LjMxNzI0LDAtMTAuNzk3MTgsNy44MDgzOS0xOC4xMjM2LDIwLjQzNjM3LTE4LjEyMzYsMTEuMDg2MTQsMCwxNi45NjYxNSw0LjgxOTYsMjAuMDUwOTEsMTIuOTE4Ljk2NDQ1LDIuMzEyNzcsMS40NDY0MSw0LjcyMzEtMi45ODgyNiw1LjU5MDUybC01LjIwNTU5LDEuMDYwNDJjLTMuOTUyMTguNzcwOTItNC4zMzc2NC0xLjA2MDQyLTYuMDczLTMuNjYyNjlhNi4zOTY3OSw2LjM5Njc5LDAsMCwwLTUuNDk0NTYtMy4wODQ3NWMtMy4xODEyNSwwLTUuMjA1NTksMS44MzEzNC01LjIwNTU5LDQuNzIzMSwwLDEyLjI0MjUyLDI3LjU2OTgxLDEwLjYwNDE4LDI3LjU2OTgxLDMzLjczOTMxLDAsMTIuNTMyLTguNzcyMzEsMTkuNjY1NDUtMjIuMzY0MjIsMTkuNjY1NDUtMTEuNDcxNTksMC0xNy45MzAwNy00LjQzNDY3LTIwLjgyMjM2LTE0LjA3Mzg3Qzk1LjU3Mjg2LDYxNi4yNCw5NS4xODc0LDYxMy45MjYxNyw5OS43MTgsNjEzLjA1ODc1WiIgY2xhc3M9ImNscy0xIi8+PHBhdGggZD0iTTE1NC44NjE4Nyw1NzYuNjIwNjhoLTguMDk3MzVjLTMuNjYzMjEsMC00LjkxNjYyLTIuMjE3MzQtNC45MTY2Mi00LjkxNzE2di00LjE0NDExYzAtMi42OTk4MywxLjI1MzQxLTQuOTE3MTYsNC45MTY2Mi00LjkxNzE2SDE3OS4wNThjMy42NjMyMSwwLDQuOTE2MDksMi4yMTczMyw0LjkxNjA5LDQuOTE3MTZ2NC4xNDQxMWMwLDIuNjk5ODItMS4yNTI4OCw0LjkxNzE2LTQuOTE2MDksNC45MTcxNmgtOC4wOTc4OHY1MC4zMmMwLDMuNjYyNjgtMi4yMTY4MSw0LjkxNjA5LTQuOTE2MSw0LjkxNjA5aC02LjI2NmMtMi42OTg3NiwwLTQuOTE2MS0xLjI1MzQxLTQuOTE2MS00LjkxNjA5WiIgY2xhc3M9ImNscy0xIi8+PHBhdGggZD0iTTE4OS43NjAyMiw1NjcuNTU5NDFjMC0zLjY2Mzc1LDIuMjE2ODEtNC45MTcxNiw0LjkxNjEtNC45MTcxNmgxNi4yOTEyYzE1LjEzNDgxLDAsMjMuMDM5NjksNS42ODgwOCwyMy4wMzk2OSwyMC4wNTE0NCwwLDguMzg2ODQtMy4yNzc3NSwxMy42ODc4Ny04LjI5MDM0LDE2Ljc3MzY5bDkuMzUwNzYsMjcuNzYxNzNjMS4zNDkzOCw0LjA0OTc0LS45NjQ0NSw0LjYyNzY2LTMuMzc0MjUsNC42Mjc2NmgtOC42NzU4MWMtMi44OTE3NiwwLTQuNTMwNjMtMS45Mjc4My01LjMwMjA4LTQuNzIzMUwyMTEuNTQ2LDYwNS45MjUzMmgtNS42ODc1NXYyMS4wMTUzNmMwLDMuNjYyNjgtMi4yMTY4LDQuOTE2MDktNC45MTYwOSw0LjkxNjA5aC02LjI2NmMtMi42OTkyOSwwLTQuOTE2MS0xLjI1MzQxLTQuOTE2MS00LjkxNjA5Wm0yMC4xNDY4OCwyNS4zNTI0NmM0LjE0NTE3LDAsNy42MTU5Mi0xLjYzOTQsNy42MTU5Mi04LjU3OTg0LDAtNy42MTQ4Ni0zLjM3NDI1LTguMTkzODQtNy4yMjk5My04LjE5Mzg0aC00LjQzNDY3djE2Ljc3MzY4WiIgY2xhc3M9ImNscy0xIi8+PHBhdGggZD0iTTI0MS45MTQyMiw1NjcuNTU5NDFjMC0zLjY2Mzc1LDIuMjE2OC00LjkxNzE2LDQuOTE2MDktNC45MTcxNmg2LjM2MjUxYzIuNjk4NzYsMCw0LjkxNjEsMS4yNTM0MSw0LjkxNjEsNC45MTcxNnY1OS4zODEyN2MwLDMuNjYyNjgtMi4yMTczNCw0LjkxNjA5LTQuOTE2MSw0LjkxNjA5aC02LjM2MjUxYy0yLjY5OTI5LDAtNC45MTYwOS0xLjI1MzQxLTQuOTE2MDktNC45MTYwOVoiIGNsYXNzPSJjbHMtMSIvPjxwYXRoIGQ9Ik0yNjcuNzUwMjQsNTY3LjU1OTQxYzAtMy42NjM3NSwyLjIxNjgtNC45MTcxNiw0LjkxNjA5LTQuOTE3MTZoMTQuOTQxODJjMTYuNzczMTYsMCwyNC4wOTk1OCw1LjQ5NTA4LDI0LjA5OTU4LDE4LjMxNjU5LDAsNi45NDA0NC0zLjA4NDc1LDExLjk1My04Ljk2NDc3LDE0LjU1NTN2LjE5M2M2Ljc0NzQ0LDIuMzEzODQsMTAuNDEwNjUsNy4xMzM0MywxMC40MTA2NSwxNS44MDk3NywwLDE2LjU4MDY5LTExLjM3NTEsMjAuMzM5ODctMjUuNDQ5LDIwLjMzOTg3SDI3Mi42NjYzM2MtMi42OTkyOSwwLTQuOTE2MDktMS4yNTM0MS00LjkxNjA5LTQuOTE2MDlabTIwLjcyNTMzLDIyLjU1NzJjNC4zMzgxNywwLDYuODQ0NDctMi4xMjA4Myw2Ljg0NDQ3LTcuMzI2NDIsMC00LjkxNzE2LTIuNzk1NzktNi4zNjI1MS02Ljg0NDQ3LTYuMzYyNTFoLTQuOTE2MXYxMy42ODg5M1ptLjM4NiwyNy45NTQ3M2M1Ljg4LDAsNy45MDQzNi0yLjQwOTI2LDcuOTA0MzYtNy44MDc4NSwwLTUuODgtMy4xODEyNi03LjgwNzg2LTcuODA4MzktNy44MDc4NmgtNS4zOTgwNnYxNS42MTU3MVoiIGNsYXNzPSJjbHMtMSIvPjxwYXRoIGQ9Ik0zMjAuMDk3NzYsNTY3LjU1OTQxYzAtMy42NjM3NSwyLjIxNzMzLTQuOTE3MTYsNC45MTY2Mi00LjkxNzE2aDYuMzYyYzIuNjk5MjksMCw0LjkxNjYzLDEuMjUzNDEsNC45MTY2Myw0LjkxNzE2djQzLjI4MmMwLDUuNzg0NTcsMi4zMTMzLDguMzg2ODQsNi43NDgsOC4zODY4NCw0LjQzNDEzLDAsNy4xMzM0My0yLjYwMjI3LDcuMTMzNDMtOC4zODY4NHYtNDMuMjgyYzAtMy42NjM3NSwyLjIxNzMzLTQuOTE3MTYsNC45MTYwOS00LjkxNzE2SDM2MS4yNmMyLjY5OTMsMCw0LjkxNjYzLDEuMjUzNDEsNC45MTY2Myw0LjkxNzE2djQxLjA2NTczYzAsMTUuODA4NzEtNy4xMzM0MywyNC4wMDI1Ni0yMy40MjUxNiwyNC4wMDI1Ni0xNi4wOTgyLDAtMjIuNjUzNy04LjE5Mzg1LTIyLjY1MzctMjQuMDAyNTZaIiBjbGFzcz0iY2xzLTEiLz48cGF0aCBkPSJNMzg0LjU5MjM2LDU3Ni42MjA2OEgzNzYuNDk1Yy0zLjY2MzIyLDAtNC45MTY2My0yLjIxNzM0LTQuOTE2NjMtNC45MTcxNnYtNC4xNDQxMWMwLTIuNjk5ODMsMS4yNTM0MS00LjkxNzE2LDQuOTE2NjMtNC45MTcxNmgzMi4yOTM0M2MzLjY2MzIxLDAsNC45MTYwOSwyLjIxNzMzLDQuOTE2MDksNC45MTcxNnY0LjE0NDExYzAsMi42OTk4Mi0xLjI1Mjg4LDQuOTE3MTYtNC45MTYwOSw0LjkxNzE2SDQwMC42OTExdjUwLjMyYzAsMy42NjI2OC0yLjIxNzM0LDQuOTE2MDktNC45MTY2Myw0LjkxNjA5aC02LjI2NmMtMi42OTkyOSwwLTQuOTE2MS0xLjI1MzQxLTQuOTE2MS00LjkxNjA5WiIgY2xhc3M9ImNscy0xIi8+PHBhdGggZD0iTTQxOS40OTA3MSw1NjcuNTU5NDFjMC0zLjY2Mzc1LDIuMjE2ODEtNC45MTcxNiw0LjkxNjEtNC45MTcxNmg2LjM2MjUxYzIuNjk4NzYsMCw0LjkxNjA5LDEuMjUzNDEsNC45MTYwOSw0LjkxNzE2djU5LjM4MTI3YzAsMy42NjI2OC0yLjIxNzMzLDQuOTE2MDktNC45MTYwOSw0LjkxNjA5aC02LjM2MjUxYy0yLjY5OTI5LDAtNC45MTYxLTEuMjUzNDEtNC45MTYxLTQuOTE2MDlaIiBjbGFzcz0iY2xzLTEiLz48cGF0aCBkPSJNNDQzLjIwNTM2LDU5Ny4zNDY1NGMwLTIxLjMwNDg1LDUuNTkxMDYtMzUuNTcxNzEsMjQuNDg1MDUtMzUuNTcxNzFzMjQuNDg1MDUsMTQuMjY2ODYsMjQuNDg1MDUsMzUuNTcxNzFjMCwyMi4wNzQ3Mi02Ljg0Mzk0LDM1LjM3NzY2LTI0LjQ4NSwzNS4zNzc2NlM0NDMuMjA1MzYsNjE5LjQyMTI2LDQ0My4yMDUzNiw1OTcuMzQ2NTRabTMyLjQ4NjQzLDBjMC0xNi4yOTIyNi0yLjEyMDgzLTIyLjI2ODc3LTguMDAxMzgtMjIuMjY4NzctNS44OCwwLTguMDAwODUsNS45NzY1MS04LjAwMDg1LDIyLjI2ODc3LDAsMTcuMDYyMTIsMi40MDk4LDIyLjE3MTIxLDguMDAwODUsMjIuMTcxMjFDNDczLjM3OCw2MTkuNTE3NzUsNDc1LjY5MTc5LDYxNC40MDg2Niw0NzUuNjkxNzksNTk3LjM0NjU0WiIgY2xhc3M9ImNscy0xIi8+PHBhdGggZD0iTTQ5OS42OTg1OSw1NjcuNTU5NDFjMC0zLjY2Mzc1LDIuMjE2OC00LjkxNzE2LDQuOTE2MS00LjkxNzE2aDYuOTQxYTcuNTY3MjgsNy41NjcyOCwwLDAsMSw2Ljg0Mzk0LDQuNDM0NjdsMTMuMjA3LDI5Ljg4MzYzaC4xOTI0N1Y1NjcuNTU5NDFjMC0zLjY2Mzc1LDIuMjE3MzMtNC45MTcxNiw0LjkxNjYyLTQuOTE3MTZoNC42MjcxNGMyLjY5ODc2LDAsNC45MTYwOSwxLjI1MzQxLDQuOTE2MDksNC45MTcxNnY1OS4zODEyN2MwLDMuNjYyNjgtMi4yMTczMyw0LjkxNjA5LTQuOTE2MDksNC45MTYwOWgtNS42ODc1NmMtMi45ODg3OCwwLTQuNzIzNjMtMS44MzEzNC01Ljk3Ny00LjQzNDY2TDUxNC4xNTc5Miw1OTMuNTg2M2gtLjE5MjQ3djMzLjM1NDM4YzAsMy42NjI2OC0yLjIxNzMzLDQuOTE2MDktNC45MTY2Myw0LjkxNjA5aC00LjQzNDEzYy0yLjY5OTMsMC00LjkxNjEtMS4yNTM0MS00LjkxNjEtNC45MTYwOVoiIGNsYXNzPSJjbHMtMSIvPjxnIGlkPSJGMUw0WHUiPjxwYXRoIGQ9Ik00NjEuMjgxNjIsMzY1LjI2Mzc3YzE0LjYyNi0xNC45OTU3MywzMS41MTA3My0yNy44ODU4MSw0My45MDEtNDUuMzAwMSwyMy42MDU1LTMzLjE3NzA5LDIxLjU4ODEtNTMuOTg2MTEtOS4wODUyOC03OS44OTU0OS01LjU0NzI3LTQuNjg1NzEtOC4xODIzNy03Ljk2MjUyLTUuMTg3LTE1LjI1MSwyLjU3NjQxLTYuMjY5MzQsMy43NjUyOC0xMy4yMTcxMSw0LjgzMTU2LTE5Ljk4MSw1LjkwMzE0LTM3LjQ0NjU5LTExLjAwMDgyLTYwLjcwMDc4LTQ4LjY0ODI4LTYzLjMzMjY3LTEzLjEzNy0uOTE4NDItMTYuNDUwMTUtNS40MzA2Mi0xOS4yMTc1NC0xNi45MzUtOS4zMDM4Ny0zOC42NzY2My0zNC41OTAzOC01My42NzE2Ny03NC4xMzY2Mi00NC41ODUtMTAuMTg0NDMsMi4zNDAxLTE3LjA1NzQxLDIuMjUyOS0yNC44NTkzLTYuNzc5MjYtMzAuMTc1LTM0LjkzMzE3LTU5LjU4MDg0LTM1LjIyNjQ2LTkxLjk1MjIyLS4zNDgtOS42NDMzNywxMC4zOTAyNS0xNS42MjI1LDExLjgzOTE4LTI4LjYyNzgzLDUuNDA1NS0zMi45MDM0MS0xNi4yNzcxMy01OS44Mzg3LTMuMTAwNDYtNjkuNzg0MzcsMzUuNDc3MTItNC42ODQ4LDE4LjE3MTY0LTExLjM2ODU0LDI2LjM0ODktMzAuMjQ0NzEsMzAuMTU4Mi0zMS4zMzAyOCw2LjMyMjU5LTQ0Ljc4OTMzLDMzLjU3NTktMzUuNTc1MzIsNjkuNTMxLDMuNzYyNTIsMTQuNjgyMTUsNC42ODI2LDIzLjQzNjU1LTEwLjI4OTkyLDMzLjI2NDIzLTIyLjc0OTEzLDE0LjkzMjE2LTI1LjIyMDUyLDM1LjMzNzEzLTExLjA5NTMsNTkuMzk4NzVhMTYzLjA2ODYzLDE2My4wNjg2MywwLDAsMCwxOC40NjA4NSwyNC42ODcwN2M2LjQwMjU4LDcuMjgwMzcsMTMuOTQ1MjEsMTMuNTU4MTcsMTkuODA0MzQsMjEuNDgyQzY1LjI1MDUzLDMzOC4wNDgwOSw0My4xMTYsMzIxLjI4NzQ2LDI3Ljg1OTgsMjk3LjI5OTkzYy0xNy4wNTA1Ny0yNi44MDg3Ni0xMy40MDYwOS00OC4xNTA4OCwxMy4zMzE4Ny02NS4yNjIxMiwxMy42NDY4OC04LjczMzQ0LDE0Ljg3NTA3LTE1LjkyMzQ3LDEwLjY1ODcxLTMwLjkzNDY0LTEyLjcyNjktNDUuMzEwNDgsNS4xMjA1NC03MS4yOTM0OCw1Mi4wOTMzOS03OC4zNDAxNyw5LjEyMjM0LTEuMzY4NTEsMTMuMjQzNjgtNC4zNzEzNCwxNC45MzM1OC0xMy4wOTE1NmExMjAuMzczNTgsMTIwLjM3MzU4LDAsMCwxLDYuOTE5MjgtMjMuNjY0NThDMTQwLjI2NjcyLDUxLjU5MzU1LDE2Ni44OTA0OCw0MC42NDkzNCwyMDAuOTM1ODcsNTYuNzZjMTIuOTk1LDYuMTQ5MzMsMjAuMTY0NDcsNS43Nzg2MiwzMC42ODAyMi01LjI5OThDMjY4LjIxMDM1LDEyLjkwNzg4LDMwMS4yMzg4NywxMy45NTcsMzM2LjA4OSw1My45NTYwOWM3LjAzNDM3LDguMDczNjQsMTMuMzI3MjMsNy41ODc0OSwyMS41MTc4Miw1LjU0ODQ1LDQ5LjI2NTY3LTEyLjI2NDYyLDgyLjM0MjMyLDkuNjY3MzgsODYuODAzNTIsNTIuMDIzNzguODU1NjMsOC4xMjM3NSw0Ljg5MTUxLDEyLjQ5MTg5LDEzLjU5ODIyLDExLjA2NzQ1YTkuMDgwNTgsOS4wODA1OCwwLDAsMSwyLjA2MDgzLjAxMTYyYzQ4LjQyNzc1LDMuMzI3NDUsNjcuOTA0NDcsMjkuMzcyMTYsNTUuNjUyMjUsNzYuMjg0ODgtMy42ODY3NSwxNC4xMTYyNy01LjI2NiwyMy4zNTY0Nyw5LjgzMTY4LDMzLjM5MTgsMjQuMDI1LDE1Ljk2OTE5LDI2LjQzNjA1LDQwLjkwOCwxMC44OTA1OCw2Ny4yMjE5NEM1MjMuNTE5LDMyMS4zODQsNDkyLjMzOTEsMzQ5LjQ5MDU2LDQ2MS4yODE2MiwzNjUuMjYzNzdaIiBjbGFzcz0iY2xzLTIiLz48cGF0aCBkPSJNMjIyLjIxMTY2LDQxMi4xNTk5NGMtNDMuMzMzNSw4LjcxMDY5LTg4LjYyOCw3Ljk4Mzk1LTEzMC43NzkwNywyOC4zODUyMyw5NC41OTMyNCwzNC41NzU4OCwyNjUuODYzMjEsMzkuMzI0OTQsMzgxLjI4NjU5Ljg3ODgzLTIwLjgwMjU2LTEzLjAzODc3LTQzLjI1MjM1LTE1LjQ2NzU3LTY0Ljk2NzcxLTE5LjUyODc1LTIxLjQ2NTgyLTQuMDE0NTUtNDMuMjEwNDktNi41Mzc1NC02NS4yMjg1NS05Ljc3MywyLjMyMTU1LTkuMDkwNiw1LjcxOTQxLTEzLjI2MTU1LDE0LjY4MTgtMTEuNTM1MDYsMzQuOTc1NSw2LjczNzQ3LDcwLjYwNjUsMTAuNDM4NTYsMTA0LjMwMDUzLDIyLjk2MzQxLDguMTgyMTgsMy4wNDE1MiwxOC44OTEyNCw0LjQwOTExLDE5Ljg2NDU1LDE1LjE1NjE0LDEuMDk2MjIsMTIuMTA0NDgtNi4xMDY5MiwyNC4wOTczOS0xNi43OTkxNSwyNS42NzQwOS0zMC4yNTAxMyw0LjQ2MDY0LTU2LjM4NTU5LDI2LjM2MjEyLTg0LjkxMzMsMjYuNTA2LTI4LjQ3MDQ4LjE0MzcxLTUyLjgyOTg5LS41Mjk3Ny03OS40OTIsMTQuMTc0NzYtMjAuMTgxNTYsMTEuMTMwNDctNDYuMzMyLDIuODMxOTQtNjQuMTYzMzUtMTUuNDU0MDgtNi44Mzc3NS03LjAxMjE2LTExLjEzNzk0LTYuMzc4NjQtMTkuMDIxMTQtMi44NTgyOS0yMy45MTI3OCwxMC42Nzg0Mi00Ny4yNDU0Niw4LjUxMjQtNjcuMzE2MTQtOC43OTg4Ni03LjEwMjc5LTYuMTI2MjctMTMuMjc1MzYtNy42MjktMjIuMDYxNjUtNi42ODkwN2E0NC4wODg2Nyw0NC4wODg2NywwLDAsMS0yNy43NDc0My01Ljg2MTIyQzg5LjgxNzksNDU5LjM4MzE1LDgyLjA1MDcsNDUxLjQzNyw4Mi44OTgsNDM5LjE4ODMyYy43NzA0OC0xMS4xMzg4OSwxMS40OTYyNy0xMi4zNTA4OSwxOS41NTY4OS0xNS40MDUzNiwzMy42Mjg0OC0xMi43NDMwNiw2OS4xODc1NC0xNi44Mjg4OSwxMDQuMjY3ODUtMjMuMTQ1NTFDMjE1Ljc1Njg1LDM5OS4wMTA3NCwyMTkuMTU0MDcsNDAzLjM4MzM5LDIyMi4yMTE2Niw0MTIuMTU5OTRaIiBjbGFzcz0iY2xzLTIiLz48L2c+PHJlY3QgaGVpZ2h0PSI2My43NTIzOCIgd2lkdGg9IjYzLjc1MjM4IiB5PSIyNzguMjg1NTQiIHg9IjE1Ny45MTg0IiBjbGFzcz0iY2xzLTEiLz48cmVjdCBoZWlnaHQ9IjYzLjc1MjM4IiB3aWR0aD0iNjMuNzUyMzgiIHk9IjI3OC4yODU1NCIgeD0iMjQxLjAwOCIgY2xhc3M9ImNscy0xIi8+PHJlY3QgaGVpZ2h0PSI2My43NTIzOCIgd2lkdGg9IjYzLjc1MjM4IiB5PSIzNjEuMzc1MTQiIHg9IjE1Ny45MTg0IiBjbGFzcz0iY2xzLTEiLz48cmVjdCB0cmFuc2Zvcm09InRyYW5zbGF0ZSgtMTMuOTE4MjIgMzM2LjI4NDcxKSByb3RhdGUoLTQ1KSIgaGVpZ2h0PSI2My43NTE3NyIgd2lkdGg9IjYzLjc1MTc2IiB5PSIxNTMuMDY3MjQiIHg9IjM2Ny4wOTY1NyIgY2xhc3M9ImNscy0xIi8+PHBvbHlnb24gcG9pbnRzPSIyMzkuNzk5IDIyMS43ODUgMjM5Ljc5OSAyMjIuMzg5IDI5Ni4zIDI1MC43OSAzMjUuMDA0IDE5My45ODcgMjY4LjIwMSAxNjUuMjg0IDIzOS43OTkgMjIxLjc4NSIgY2xhc3M9ImNscy0xIi8+PHJlY3QgdHJhbnNmb3JtPSJ0cmFuc2xhdGUoLTU5Ljg1MTIgNDk2LjIxNzQpIHJvdGF0ZSgtNjMuMTk5MjIpIiBoZWlnaHQ9IjYzLjc1MzgzIiB3aWR0aD0iNjMuNzUzODQiIHk9IjI2NC44NzU5IiB4PSIzNDEuNDk4NTgiIGNsYXNzPSJjbHMtMSIvPjxyZWN0IGhlaWdodD0iNjMuNzUyMzgiIHdpZHRoPSI2My43NTIzOCIgeT0iMTk1LjE5NTk0IiB4PSIxNTcuOTE4NCIgY2xhc3M9ImNscy0xIi8+PHJlY3QgaGVpZ2h0PSI2My43NTIzOCIgd2lkdGg9IjYzLjc1MjM4IiB5PSIzNjEuMzc1MTQiIHg9IjI0MS4wMDgiIGNsYXNzPSJjbHMtMSIvPjxyZWN0IGhlaWdodD0iNjMuNzUyMzgiIHdpZHRoPSI2My43NTIzOCIgeT0iMzYxLjM3NTE0IiB4PSIzMjQuMzk5NzMiIGNsYXNzPSJjbHMtMSIvPjwvc3ZnPg==;rounded=1;" vertex="1" parent="1">
          <mxGeometry x="-47" y="349.99999999999994" width="54" height="62.71" as="geometry" />
        </mxCell>
      </root>
    </mxGraphModel>
  </diagram>
</mxfile>
